name D:\school\WTK\thesis\model\3dpredictsim\Results\Batchsim_tmt_linear_v2\Pog_s1_tmt_bCst_d05_k1000_ig24_act.mot
datacolumns 128
datarows 4
range 0.00000000 0.03828839
endheader
time	pelvis_tilt	pelvis_list	pelvis_rotation	pelvis_tx	pelvis_ty	pelvis_tz	hip_flexion_l	hip_adduction_l	hip_rotation_l	hip_flexion_r	hip_adduction_r	hip_rotation_r	knee_angle_l	knee_angle_r	ankle_angle_l	ankle_angle_r	subtalar_angle_l	subtalar_angle_r	tmt_angle_l	tmt_angle_r	mtp_angle_l	mtp_angle_r	lumbar_extension	lumbar_bending	lumbar_rotation	arm_flex_l	arm_add_l	arm_rot_l	arm_flex_r	arm_add_r	arm_rot_r	elbow_flex_l	elbow_flex_r	pro_sup_l	pro_sup_r	glut_med1_l/activation	glut_med2_l/activation	glut_med3_l/activation	glut_min1_l/activation	glut_min2_l/activation	glut_min3_l/activation	semimem_l/activation	semiten_l/activation	bifemlh_l/activation	bifemsh_l/activation	sar_l/activation	add_long_l/activation	add_brev_l/activation	add_mag1_l/activation	add_mag2_l/activation	add_mag3_l/activation	tfl_l/activation	pect_l/activation	grac_l/activation	glut_max1_l/activation	glut_max2_l/activation	glut_max3_l/activation	iliacus_l/activation	psoas_l/activation	quad_fem_l/activation	gem_l/activation	peri_l/activation	rect_fem_l/activation	vas_med_l/activation	vas_int_l/activation	vas_lat_l/activation	med_gas_l/activation	lat_gas_l/activation	soleus_l/activation	tib_post_l/activation	flex_dig_l/activation	flex_hal_l/activation	tib_ant_l/activation	per_brev_l/activation	per_long_l/activation	per_tert_l/activation	ext_dig_l/activation	ext_hal_l/activation	ercspn_l/activation	intobl_l/activation	extobl_l/activation	glut_med1_r/activation	glut_med2_r/activation	glut_med3_r/activation	glut_min1_r/activation	glut_min2_r/activation	glut_min3_r/activation	semimem_r/activation	semiten_r/activation	bifemlh_r/activation	bifemsh_r/activation	sar_r/activation	add_long_r/activation	add_brev_r/activation	add_mag1_r/activation	add_mag2_r/activation	add_mag3_r/activation	tfl_r/activation	pect_r/activation	grac_r/activation	glut_max1_r/activation	glut_max2_r/activation	glut_max3_r/activation	iliacus_r/activation	psoas_r/activation	quad_fem_r/activation	gem_r/activation	peri_r/activation	rect_fem_r/activation	vas_med_r/activation	vas_int_r/activation	vas_lat_r/activation	med_gas_r/activation	lat_gas_r/activation	soleus_r/activation	tib_post_r/activation	flex_dig_r/activation	flex_hal_r/activation	tib_ant_r/activation	per_brev_r/activation	per_long_r/activation	per_tert_r/activation	ext_dig_r/activation	ext_hal_r/activation	ercspn_r/activation	intobl_r/activation	extobl_r/activation	
          0.00000000	         -1.33411588	          2.36382762	          8.89278505	          0.00000000	          0.86339278	         -0.00397562	        -16.39540947	          0.88905340	          5.01984128	         28.41429997	         -3.17274088	         -0.58865595	        -19.30485935	         -9.94622788	        -17.95680401	          7.88155561	          8.30004168	          4.78388128	          0.78908778	          0.01913159	         36.87961051	         -0.04946120	          1.44469274	         -5.33447676	         -3.33060684	          1.18897718	        -13.59413705	          9.49794553	        -17.10198546	        -13.45639758	         13.96343416	         33.40020806	         21.03080925	         86.51662706	         86.51662706	          0.21081099	          0.05000819	          0.06513124	          0.20263518	          0.09676339	          0.05000159	          0.05000504	          0.05000116	          0.05000106	          0.05000054	          0.06066620	          0.24556005	          0.32401934	          0.18013111	          0.05010337	          0.05000220	          0.12021864	          0.12268498	          0.07354401	          0.05006984	          0.05005928	          0.06298113	          0.22228389	          0.39189595	          0.08625561	          0.05253830	          0.05225515	          0.18721874	          0.06316950	          0.06772361	          0.06043110	          0.05000022	          0.06114395	          0.05000007	          0.08994229	          0.07677024	          0.09472046	          0.25593101	          0.33393905	          0.21246527	          0.52846571	          0.57841616	          0.05000076	          0.05000006	          0.06523184	          0.08027952	          0.11488635	          0.05000054	          0.25060799	          0.06063935	          0.05000264	          0.05000085	          0.06063554	          0.05753424	          0.06063557	          0.05000253	          0.05000490	          0.08917467	          0.10867768	          0.15902960	          0.18376857	          0.15510228	          0.05226522	          0.07353988	          0.06063927	          0.05000068	          0.05000213	          0.18045810	          0.07353380	          0.07112641	          0.07559443	          0.05000198	          0.22677952	          0.05650913	          0.23529335	          0.24073575	          0.20250867	          0.05044312	          0.05004139	          0.06059926	          0.05000015	          0.06063836	          0.06063603	          0.61038948	          0.28256957	          0.15803463	          0.56276602	          0.61663812	          0.50822667	          0.05000006	          0.13797949	          0.11471802	
          0.01276280	         -1.31026941	          2.57435299	          8.87233033	          0.02183775	          0.86161987	         -0.00366110	        -16.29315910	          0.79180694	          4.83365702	         27.76976135	         -3.12175559	         -0.41987120	        -21.31987360	        -10.64787136	        -20.23808379	          6.92086876	          8.92752012	          4.50301626	          0.59062137	          0.02672937	         35.57914376	         -0.00141834	          1.72516021	         -5.16595576	         -3.41562984	          0.83757311	        -13.67576695	          9.94875473	        -19.10315008	        -13.48922097	         14.22571316	         34.38466162	         21.25017163	         86.51662706	         86.51662706	          0.17383421	          0.06063566	          0.06063572	          0.16709254	          0.07979095	          0.06063567	          0.05000621	          0.05000079	          0.05037687	          0.05000024	          0.05002590	          0.25436551	          0.31165336	          0.17799750	          0.06065388	          0.06063856	          0.09913204	          0.10116720	          0.06064463	          0.05024094	          0.06062215	          0.06063473	          0.18329472	          0.32315675	          0.07112624	          0.06063623	          0.06063552	          0.15438006	          0.05528899	          0.08917242	          0.08241726	          0.05000008	          0.05041925	          0.05000003	          0.07416617	          0.06330472	          0.07810630	          0.28973386	          0.31311786	          0.19728580	          0.59862925	          0.70515765	          0.28221939	          0.07224741	          0.06063571	          0.06619833	          0.19655371	          0.18118450	          0.26513839	          0.05000429	          0.05000152	          0.06636966	          0.05000005	          0.05000010	          0.05000007	          0.05000005	          0.05000029	          0.07353327	          0.08961537	          0.13113571	          0.15153619	          0.14062136	          0.05043730	          0.06064123	          0.05000332	          0.13733905	          0.12868331	          0.16074292	          0.06063585	          0.05865092	          0.12314902	          0.05000181	          0.18700216	          0.06375178	          0.31022591	          0.32751114	          0.26208943	          0.05000002	          0.05000006	          0.05000000	          0.05000016	          0.05000258	          0.05000083	          0.61095810	          0.31604348	          0.18479171	          0.57987457	          0.57297176	          0.41908240	          0.05000004	          0.11377751	          0.09459617	
          0.02552560	         -1.28040093	          2.76235846	          8.80823878	          0.04351498	          0.85939843	         -0.00334445	        -16.01463650	          0.70979744	          4.67266064	         27.00692439	         -3.03955250	         -0.20831753	        -23.70595001	        -11.76702258	        -21.73971560	          6.10148798	          9.51577076	          4.22570259	          0.42666200	         -0.00874839	         32.36674129	         -0.18588909	          1.98559021	         -4.95328443	         -3.48429000	          0.50285821	        -13.76123000	         10.39247292	        -20.97901866	        -13.53520163	         14.63127283	         35.30992575	         21.30154053	         86.51662706	         86.51662706	          0.18152319	          0.05000012	          0.05000008	          0.13778510	          0.06579553	          0.05000029	          0.06421899	          0.05000025	          0.05000045	          0.05000021	          0.05001953	          0.22777015	          0.31298718	          0.14677688	          0.05001906	          0.05000305	          0.08174411	          0.08343002	          0.05000764	          0.05000089	          0.05000055	          0.05000059	          0.15114440	          0.30857817	          0.05865054	          0.05000064	          0.05000013	          0.12730137	          0.07353181	          0.07353161	          0.06796123	          0.05000120	          0.05000341	          0.05000112	          0.06115725	          0.05220119	          0.06440636	          0.35617556	          0.29397435	          0.18937646	          0.54416999	          0.80460160	          0.23271738	          0.10051821	          0.05000005	          0.05531833	          0.28409451	          0.34727114	          0.44670251	          0.05000296	          0.20099566	          0.28527693	          0.06063582	          0.06893982	          0.06199149	          0.07353303	          0.06063081	          0.06063538	          0.07389662	          0.10813425	          0.12495652	          0.14576545	          0.05000035	          0.05000504	          0.05000089	          0.24700180	          0.19950580	          0.17254263	          0.05000031	          0.05000017	          0.13114694	          0.06915315	          0.31203710	          0.05256956	          0.25581149	          0.27006485	          0.21611827	          0.05000005	          0.05000010	          0.05000001	          0.05000000	          0.05000032	          0.05000024	          0.72716262	          0.31313009	          0.15784678	          0.77300978	          0.73110916	          0.55995852	          0.05000003	          0.09382062	          0.07800374	
          0.03828839	         -1.24806048	          2.91198326	          8.68914432	          0.06464729	          0.85718215	         -0.00298657	        -15.51389644	          0.63098283	          4.53241368	         26.31642895	         -2.91241647	         -0.01056306	        -26.41115823	        -12.98257553	        -22.63965252	          5.28797329	         10.07721153	          3.92880915	          0.24927009	         -0.02440790	         27.41363590	         -0.21026430	          2.20576995	         -4.68374456	         -3.53601400	          0.26402739	        -13.82432183	         10.86221938	        -22.62737578	        -13.57775754	         15.17413811	         36.05572767	         21.12084075	         86.51662706	         86.51662706	          0.14968357	          0.05000027	          0.05000010	          0.11361739	          0.05425503	          0.05000035	          0.08171465	          0.05000027	          0.05000137	          0.05000005	          0.05000027	          0.21130234	          0.27755021	          0.21409655	          0.09003101	          0.10814486	          0.06740605	          0.06879663	          0.05000033	          0.05000537	          0.05001038	          0.07353869	          0.12463328	          0.26872660	          0.05000013	          0.05000060	          0.05000018	          0.10497236	          0.06063568	          0.06063568	          0.06063567	          0.05000014	          0.05000033	          0.05000006	          0.05043039	          0.05000502	          0.05311900	          0.37567039	          0.24241057	          0.16197960	          0.44872122	          0.88005784	          0.26217173	          0.13712809	          0.05000003	          0.05000004	          0.33685768	          0.49344204	          0.62925805	          0.23467677	          0.37064985	          0.47099301	          0.05000031	          0.06063626	          0.05111835	          0.06063543	          0.05000039	          0.05000014	          0.06093501	          0.08916744	          0.10303923	          0.13901212	          0.05000087	          0.05000088	          0.06063525	          0.34661041	          0.26602623	          0.19510107	          0.05000006	          0.05000007	          0.10814626	          0.07356749	          0.32550635	          0.05000004	          0.37810412	          0.41194841	          0.31837562	          0.05000001	          0.05000004	          0.05000000	          0.09276272	          0.05000064	          0.05000040	          0.85258829	          0.25820621	          0.13016002	          0.63742178	          0.64572025	          0.61497805	          0.06429675	          0.07736423	          0.06432168	
